<svg width="40" height="40" viewBox="0 0 40 40" fill="none" xmlns="http://www.w3.org/2000/svg">
    <g opacity="0.4">
        <rect x="8.5" y="7.5" width="22" height="23" rx="0.5" stroke="#747E8A"/>
        <rect x="8.5" y="7.5" width="22" height="5" rx="0.5" stroke="#747E8A"/>
        <path d="M11.5 16C11.5 15.7239 11.7239 15.5 12 15.5H15.5V19.5H11.5V16Z" stroke="#747E8A"/>
        <rect x="15.5" y="15.5" width="4" height="4" rx="0.5" stroke="#747E8A"/>
        <rect x="19.5" y="15.5" width="4" height="4" rx="0.5" stroke="#747E8A"/>
        <path d="M23.5 15.5H27C27.2761 15.5 27.5 15.7239 27.5 16V19.5H23.5V15.5Z" stroke="#747E8A"/>
        <rect x="23.5" y="19.5" width="4" height="4" rx="0.5" stroke="#747E8A"/>
        <rect x="11.5" y="19.5" width="4" height="4" rx="0.5" stroke="#747E8A"/>
        <rect x="15.5" y="19.5" width="4" height="4" rx="0.5" stroke="#747E8A"/>
        <rect x="19.5" y="19.5" width="4" height="4" rx="0.5" stroke="#747E8A"/>
        <path d="M23.5 23.5H27.5V27C27.5 27.2761 27.2761 27.5 27 27.5H23.5V23.5Z" stroke="#747E8A"/>
        <path d="M11.5 23.5H15.5V27.5H12C11.7239 27.5 11.5 27.2761 11.5 27V23.5Z" stroke="#747E8A"/>
        <rect x="15.5" y="23.5" width="4" height="4" rx="0.5" stroke="#747E8A"/>
        <rect x="19.5" y="23.5" width="4" height="4" rx="0.5" stroke="#747E8A"/>
        <rect x="12.5" y="5.5" width="3" height="4" rx="0.5" fill="white" stroke="#747E8A"/>
        <rect x="23.5" y="5.5" width="3" height="4" rx="0.5" fill="white" stroke="#747E8A"/>
        <path
            d="M35.5 29C35.5 32.0376 33.0376 34.5 30 34.5C26.9624 34.5 24.5 32.0376 24.5 29C24.5 25.9624 26.9624 23.5 30 23.5C33.0376 23.5 35.5 25.9624 35.5 29Z"
            fill="white" stroke="#747E8A"/>
        <path d="M30 31V27V29H28H32" stroke="#00A1D5" stroke-linecap="round" stroke-linejoin="round"/>
    </g>
</svg>
