<svg width="14" height="14" viewBox="0 0 14 14" fill="none" xmlns="http://www.w3.org/2000/svg">
    <path fill-rule="evenodd" clip-rule="evenodd"
          d="M10.685 1.6524V1.66538C10.6853 1.73623 10.6762 1.80686 10.658 1.87568H7.61701C7.57305 1.87025 7.52968 1.88894 7.50583 1.92358C7.48198 1.95822 7.48198 2.00253 7.50583 2.03717C7.52968 2.07181 7.57305 2.0905 7.61701 2.08507H10.575C10.4132 2.38035 10.0865 2.56677 9.72901 2.56776H6.28201C5.96987 3.00192 5.44506 3.26378 4.88201 3.26632C3.93974 3.24536 3.18767 2.53166 3.18767 1.65843C3.18767 0.785196 3.93974 0.0714938 4.88201 0.0505371C5.44506 0.0530685 5.96987 0.314931 6.28201 0.749096H7.85201L8.29001 1.1623L8.72801 0.749096H9.085L9.40301 1.04927L9.72101 0.749096H9.72801C9.98429 0.751052 10.2292 0.847383 10.4087 1.01684C10.5883 1.1863 10.6877 1.41497 10.685 1.6524ZM4.339 1.23348C4.15258 1.23009 3.98247 1.33153 3.90858 1.49013C3.83469 1.64874 3.87171 1.833 4.00224 1.95635C4.13277 2.07971 4.33088 2.11765 4.50351 2.05235C4.67613 1.98704 4.78896 1.83148 4.789 1.65873C4.79122 1.42627 4.5899 1.23603 4.339 1.23348ZM12.556 7.21454L11.242 5.17631C10.8032 4.38945 9.95359 3.87126 9 3.80884H5C4.0471 3.87 3.19729 4.38634 2.757 5.17168L1.443 7.20991C0.607736 7.35575 0.00209357 8.0308 0 8.81826V12.1471H1L1.278 12.8716C1.278 13.4856 1.81526 13.9833 2.478 13.9833C3.14074 13.9833 3.678 13.4856 3.678 12.8716L4 12.1471H10L10.32 12.8716C10.32 13.4856 10.8573 13.9833 11.52 13.9833C12.1827 13.9833 12.72 13.4856 12.72 12.8716L13 12.1471H14V8.81826C13.9965 8.03134 13.3907 7.35742 12.556 7.21176V7.21454ZM2.517 10.2884C1.92472 10.2731 1.45628 9.81864 1.46718 9.26978C1.47808 8.72093 1.96423 8.2827 2.55672 8.28764C3.14921 8.29258 3.62677 8.73886 3.627 9.2878C3.61443 9.84593 3.11953 10.2908 2.517 10.2856V10.2884ZM7 7.14418H2.8L3.79 5.77485C4.01564 5.28484 4.4556 4.90688 5 4.73535H7H9C9.54263 4.90715 9.98101 5.28433 10.206 5.773L11.2 7.14418H7ZM11.481 10.2877C10.8886 10.2729 10.4196 9.81864 10.4302 9.26966C10.4407 8.72068 10.9268 8.28212 11.5194 8.2869C12.112 8.29169 12.5898 8.73803 12.59 9.28709C12.578 9.84486 12.0841 10.29 11.482 10.2858L11.481 10.2877Z"
          fill="#00A3D5"/>
</svg>
