<svg width="40" height="40" viewBox="0 0 40 40" fill="none" xmlns="http://www.w3.org/2000/svg">
    <path
        d="M26.5858 18.0361H25.4883C25.2042 18.0361 24.9738 18.2665 24.9738 18.5506C24.9738 18.8347 25.2041 19.0651 25.4883 19.0651H26.5858C26.8699 19.0651 27.1004 18.8348 27.1004 18.5506C27.1003 18.2665 26.8699 18.0361 26.5858 18.0361Z"
        fill="#BEC4CB"/>
    <path fill-rule="evenodd" clip-rule="evenodd"
          d="M25.883 21.8774C26.2127 21.8774 26.5182 22.0265 26.7212 22.2864C26.9241 22.5462 26.9946 22.8786 26.9147 23.1986L26.6402 24.2961C26.5216 24.7703 26.0974 25.1015 25.6086 25.1015H14.3911C13.9023 25.1015 13.478 24.7703 13.3594 24.2962L13.085 23.1986C13.005 22.8787 13.0755 22.5463 13.2784 22.2864C13.4814 22.0265 13.7869 21.8774 14.1166 21.8774H25.883ZM25.6424 24.0466L25.9168 22.9491C25.9181 22.9442 25.9208 22.9329 25.9105 22.9197C25.9002 22.9066 25.8885 22.9066 25.8835 22.9066H14.1171C14.1121 22.9066 14.1004 22.9066 14.0901 22.9197C14.0798 22.9329 14.0826 22.9443 14.0838 22.9491L14.3583 24.0467C14.3621 24.0619 14.3758 24.0726 14.3916 24.0726H25.6091C25.6249 24.0726 25.6385 24.062 25.6424 24.0466Z"
          fill="#BEC4CB"/>
    <path fill-rule="evenodd" clip-rule="evenodd"
          d="M35.3333 17.4534C35.3333 18.3422 34.61 19.0654 33.7211 19.0654H33.1722C32.9188 19.0654 32.6789 19.0064 32.4654 18.9018L33.6417 20.3721C34.0247 20.8507 34.2356 21.4518 34.2356 22.0647V32.2701C34.2356 32.8564 33.7586 33.3333 33.1722 33.3333H31.5257C30.9393 33.3333 30.4623 32.8564 30.4623 32.2701V30.0407H9.53759V32.2701C9.53759 32.8564 9.06058 33.3333 8.4742 33.3333H6.82767C6.24129 33.3333 5.76428 32.8564 5.76428 32.2701V22.0647C5.76428 21.4518 5.97517 20.8507 6.35814 20.3721L7.5345 18.9018C7.32091 19.0064 7.08109 19.0654 6.82767 19.0654H6.27884C5.38987 19.0654 4.66663 18.3422 4.66663 17.4534C4.66663 16.5645 5.38987 15.8414 6.2789 15.8414H6.82773C7.62931 15.8414 8.29595 16.4295 8.41928 17.1966L9.79185 13.4223C10.1012 12.5716 10.9174 12 11.8228 12H15.7362H24.2636H28.1771C29.0824 12 29.8986 12.5716 30.208 13.4224L31.5806 17.1967C31.704 16.4295 32.3707 15.8414 33.1722 15.8414H33.7211C34.61 15.8414 35.3333 16.5645 35.3333 17.4534ZM6.27842 18.0362H6.82724C7.14876 18.0362 7.41039 17.7746 7.41039 17.4532C7.41039 17.1316 7.14882 16.8701 6.82724 16.8701H6.27842C5.95684 16.8701 5.69527 17.1316 5.69527 17.4532C5.69527 17.7747 5.95684 18.0362 6.27842 18.0362ZM6.82774 32.3041H8.47427C8.4932 32.3041 8.50859 32.2887 8.50853 32.2698V30.0404H7.92539C7.51061 30.0404 7.12284 29.9227 6.79342 29.7193V32.2698C6.79342 32.2887 6.80881 32.3041 6.82774 32.3041ZM13.9283 29.0116V27.8798C13.9283 27.8609 13.9437 27.8455 13.9627 27.8455H26.0372C26.0562 27.8455 26.0716 27.8609 26.0716 27.8798V29.0116H13.9283ZM31.5257 32.3041H33.1722C33.1911 32.3041 33.2065 32.2887 33.2065 32.2698V29.7193C32.877 29.9227 32.4893 30.0404 32.0745 30.0404H31.4913V32.2698C31.4913 32.2887 31.5067 32.3041 31.5257 32.3041ZM32.8383 21.0145C33.0757 21.3114 33.2066 21.6843 33.2066 22.0644V27.8796C33.2066 28.5037 32.6988 29.0114 32.0746 29.0114H27.1006V27.8796C27.1006 27.2933 26.6236 26.8164 26.0372 26.8164H13.9627C13.3763 26.8164 12.8993 27.2933 12.8993 27.8796V29.0114H7.92539C7.30121 29.0114 6.79342 28.5037 6.79342 27.8796V22.0644C6.79342 21.6843 6.92423 21.3114 7.16178 21.0145L8.72152 19.065H23.293C23.5772 19.065 23.8076 18.8347 23.8076 18.5505C23.8076 18.2664 23.5772 18.036 23.293 18.036H9.2089L10.7591 13.7735C10.9211 13.3279 11.3487 13.0285 11.8229 13.0285H28.1771C28.6514 13.0285 29.0789 13.328 29.2409 13.7735L30.7912 18.036H28.7816C28.4974 18.036 28.267 18.2664 28.267 18.5505C28.267 18.8346 28.4974 19.065 28.7816 19.065H31.2785L32.8383 21.0145ZM33.1718 16.8701C32.8502 16.8701 32.5887 17.1316 32.5887 17.4532C32.5887 17.7746 32.8503 18.0362 33.1718 18.0362H33.7206C34.0422 18.0362 34.3038 17.7747 34.3038 17.4532C34.3038 17.1316 34.0422 16.8701 33.7206 16.8701H33.1718Z"
          fill="#BEC4CB"/>
    <path
        d="M10.1203 25.719C9.5339 25.719 9.05688 26.1959 9.05688 26.7822C9.05688 27.3685 9.5339 27.8455 10.1203 27.8455C10.7067 27.8455 11.1837 27.3685 11.1837 26.7822C11.1837 26.1959 10.7067 25.719 10.1203 25.719Z"
        fill="white"/>
    <path
        d="M29.8789 25.719C29.2926 25.719 28.8156 26.1959 28.8156 26.7822C28.8156 27.3685 29.2926 27.8455 29.8789 27.8455C30.4653 27.8455 30.9423 27.3685 30.9423 26.7822C30.9423 26.1959 30.4653 25.719 29.8789 25.719Z"
        fill="white"/>
    <path opacity="0.4" fill-rule="evenodd" clip-rule="evenodd"
          d="M7.95972 23.2153C7.95972 22.1751 8.80605 21.3289 9.84638 21.3289C10.8867 21.3289 11.733 22.1751 11.733 23.2153C11.733 24.2554 10.8867 25.1017 9.84638 25.1017C8.80605 25.1017 7.95972 24.2554 7.95972 23.2153ZM8.98869 23.2153C8.98869 23.6881 9.3734 24.0727 9.84628 24.0727C10.3192 24.0727 10.7039 23.6881 10.7039 23.2153C10.7039 22.7424 10.3192 22.3578 9.84628 22.3578C9.37334 22.3578 8.98869 22.7424 8.98869 23.2153Z"
          fill="#00A2D3"/>
    <path opacity="0.4" fill-rule="evenodd" clip-rule="evenodd"
          d="M28.2667 23.2153C28.2667 22.1751 29.1131 21.3289 30.1534 21.3289C31.1937 21.3289 32.04 22.1751 32.04 23.2153C32.04 24.2554 31.1937 25.1017 30.1534 25.1017C29.1131 25.1017 28.2667 24.2554 28.2667 23.2153ZM29.2963 23.2153C29.2963 23.6881 29.6811 24.0727 30.1539 24.0727C30.6269 24.0727 31.0115 23.6881 31.0115 23.2153C31.0115 22.7424 30.6268 22.3578 30.1539 22.3578C29.681 22.3578 29.2963 22.7424 29.2963 23.2153Z"
          fill="#00A2D3"/>
</svg>
