<svg width="40" height="40" viewBox="0 0 40 40" fill="none" xmlns="http://www.w3.org/2000/svg">
    <path fill-rule="evenodd" clip-rule="evenodd"
          d="M36.1268 16.9326C36.0077 16.9326 35.8897 16.894 35.7926 16.8189L35.5148 16.604V32.2729H36.1268C36.425 32.2729 36.6667 32.5103 36.6667 32.8031C36.6667 33.0959 36.425 33.3333 36.1268 33.3333H3.87333C3.57513 33.3333 3.33337 33.0959 3.33337 32.8031C3.33337 32.5103 3.57513 32.2729 3.87333 32.2729H4.48528V26.7837L4.20753 26.9986C4.11041 27.0738 3.99227 27.1124 3.87326 27.1124C3.79306 27.1124 3.7125 27.0949 3.63762 27.0592C3.45152 26.9706 3.33337 26.7853 3.33337 26.5822V23.7545C3.33337 23.592 3.40918 23.4385 3.53913 23.338L10.6016 17.8743C11.2181 17.3974 12.0792 17.3974 12.6957 17.8743L17.7322 21.7707V16.604L17.4545 16.8189C17.292 16.9446 17.0706 16.9681 16.8846 16.8795C16.6985 16.7908 16.5803 16.6055 16.5803 16.4024V13.5747C16.5803 13.4123 16.6561 13.2588 16.7861 13.1583L18.8841 11.5352V7.9193C18.8841 7.62649 19.1259 7.3891 19.4241 7.3891H21.7279C22.0261 7.3891 22.2679 7.62649 22.2679 7.9193V8.91734L25.5764 6.3577C26.1929 5.8808 27.054 5.88073 27.6705 6.3577L36.461 13.1583C36.5909 13.2588 36.6667 13.4123 36.6667 13.5747V16.4024C36.6667 16.6055 36.5486 16.7908 36.3625 16.8795C36.2876 16.9151 36.207 16.9326 36.1268 16.9326ZM21.188 8.44952H19.9641V10.6997L21.188 9.75288V8.44952ZM17.6602 13.832L26.2448 7.19066C26.4678 7.01817 26.7793 7.01817 27.0022 7.19066L35.5868 13.832V15.3097L26.9577 8.63393C26.8597 8.55807 26.7416 8.52018 26.6235 8.52018C26.5053 8.52018 26.3873 8.55807 26.2893 8.63393L17.6602 15.3097V13.832ZM11.27 18.7072L4.41329 24.0117V25.4895L11.3146 20.1504C11.5106 19.9987 11.7869 19.9987 11.9829 20.1504L17.7322 24.5983V23.1206L12.0275 18.7072C11.8045 18.5347 11.493 18.5347 11.27 18.7072ZM5.56514 25.9483L11.6487 21.2419L17.7322 25.9484V32.273H15.3564V26.0167C15.3564 25.7239 15.1146 25.4865 14.8164 25.4865H8.48091C8.18271 25.4865 7.94095 25.7239 7.94095 26.0167V32.273H5.56514V25.9483ZM14.2765 28.809H9.02087V30.0108H14.2765V28.809ZM14.2765 27.7486H9.02087V26.5468H14.2765V27.7486ZM14.2765 31.0712H9.02087V32.273H14.2765V31.0712ZM24.6436 28.3159L24.6374 28.3155C24.6275 28.3148 24.6175 28.3142 24.6076 28.3142C24.4658 28.3142 24.3261 28.3707 24.226 28.4697C24.1252 28.5679 24.0676 28.7051 24.0676 28.8444C24.0676 28.9836 24.1252 29.1208 24.226 29.219C24.3261 29.318 24.4658 29.3745 24.6076 29.3745C24.6196 29.3745 24.6316 29.3736 24.6436 29.3728V32.2729H22.2678V25.4158H24.6436V28.3159ZM25.7237 32.2729H34.435V15.7685L26.6236 9.72537L18.8122 15.7685V32.2729H21.188V24.8856C21.188 24.5928 21.4298 24.3554 21.728 24.3554H25.1837C25.4819 24.3554 25.7237 24.5928 25.7237 24.8856V32.2729Z"
          fill="#BEC4CB"/>
    <path opacity="0.4" fill-rule="evenodd" clip-rule="evenodd"
          d="M28.0634 29.9524H31.5191C31.8173 29.9524 32.0591 29.715 32.0591 29.4222V24.8979C32.0591 24.6051 31.8173 24.3677 31.5191 24.3677H28.0634C27.7652 24.3677 27.5234 24.6051 27.5234 24.8979V29.4222C27.5234 29.715 27.7652 29.9524 28.0634 29.9524ZM28.6034 28.892V27.1247H30.9792V28.892H28.6034ZM30.9792 26.0643V25.428H28.6034V26.0643H30.9792Z"
          fill="#00A2D3"/>
    <path fill-rule="evenodd" clip-rule="evenodd"
          d="M28.0634 22.0349H31.5191C31.8173 22.0349 32.0591 21.7975 32.0591 21.5047V16.9804C32.0591 16.6876 31.8173 16.4502 31.5191 16.4502H28.0634C27.7652 16.4502 27.5234 16.6876 27.5234 16.9804V21.5047C27.5234 21.7975 27.7652 22.0349 28.0634 22.0349ZM28.6034 20.9745V19.2072H30.9792V20.9745H28.6034ZM30.9792 18.1468V17.5106H28.6034V18.1468H30.9792Z"
          fill="#BEC4CB"/>
    <path fill-rule="evenodd" clip-rule="evenodd"
          d="M25.1835 16.4502H21.7278C21.4296 16.4502 21.1879 16.6876 21.1879 16.9804V21.5047C21.1879 21.7975 21.4296 22.0349 21.7278 22.0349H25.1835C25.4817 22.0349 25.7235 21.7975 25.7235 21.5047V16.9804C25.7235 16.6876 25.4817 16.4502 25.1835 16.4502ZM24.6436 17.5106V18.1468H22.2678V17.5106H24.6436ZM22.2678 19.2072V20.9745H24.6436V19.2072H22.2678Z"
          fill="#BEC4CB"/>
</svg>
