<svg width="40" height="40" viewBox="0 0 40 40" fill="none" xmlns="http://www.w3.org/2000/svg">
    <path fill-rule="evenodd" clip-rule="evenodd"
          d="M32.7969 30.052H33.4531C33.7552 30.052 34 30.2968 34 30.5989V32.7864C34 33.0884 33.7552 33.3333 33.4531 33.3333H6.54688C6.24481 33.3333 6 33.0884 6 32.7864V30.5989C6 30.2968 6.24481 30.052 6.54688 30.052H7.20312V28.4114C7.20312 28.1093 7.44794 27.8645 7.75 27.8645H8.07812V26.9985C8.07812 26.4065 8.43936 25.8975 8.95312 25.68V17.6895C8.43936 17.4722 8.07812 16.9629 8.07812 16.371V15.5052H7.75C7.44794 15.5052 7.20312 15.2603 7.20312 14.9583V12.8802H7.14844C6.89487 12.8802 6.67484 12.7061 6.6163 12.4593C6.55777 12.2128 6.67654 11.9584 6.90298 11.8445L19.7545 5.39141C19.909 5.31387 20.091 5.31387 20.2455 5.39141L33.097 11.8445C33.3235 11.9582 33.4422 12.2128 33.3837 12.4593C33.3252 12.7061 33.1051 12.8802 32.8516 12.8802H32.7969V14.9583C32.7969 15.2603 32.5521 15.5052 32.25 15.5052H31.9219V16.371C31.9219 16.9629 31.5606 17.4722 31.0469 17.6897V19.5715C31.0469 19.8735 30.8021 20.1183 30.5 20.1183C30.1979 20.1183 29.9531 19.8735 29.9531 19.5715V17.802H28.8594V25.5676H29.9531V23.8358C29.9531 23.5337 30.1979 23.2889 30.5 23.2889C30.8021 23.2889 31.0469 23.5337 31.0469 23.8358V25.68C31.5606 25.8975 31.9219 26.4065 31.9219 26.9987V27.8645H32.25C32.5521 27.8645 32.7969 28.1093 32.7969 28.4114V30.052ZM30.8281 26.9987C30.8281 26.8126 30.6769 26.6614 30.4908 26.6614H28.3217C28.1356 26.6614 27.9844 26.8126 27.9844 26.9987V27.8645H30.8281V26.9987ZM25.651 27.8645V26.9987C25.651 26.4068 25.2897 25.8975 24.776 25.68V17.6897C25.2897 17.4722 25.651 16.9629 25.651 16.371V15.5052H26.8906V16.371C26.8906 16.9629 27.2518 17.4722 27.7656 17.6895V25.68C27.2518 25.8975 26.8906 26.4065 26.8906 26.9985V27.8645H25.651ZM19.3803 26.9987V27.8645H20.6199V26.9985C20.6199 26.4065 20.9812 25.8975 21.4949 25.68V17.6895C20.9812 17.4722 20.6199 16.9629 20.6199 16.371V15.5052H19.3803V16.371C19.3803 16.9629 19.0188 17.4722 18.5053 17.6897V25.68C19.0188 25.8975 19.3803 26.4065 19.3803 26.9987ZM13.1094 27.8645V26.9987C13.1094 26.4065 12.7481 25.8975 12.2344 25.68V17.6897C12.7481 17.4722 13.1094 16.9629 13.1094 16.371V15.5052H14.349V16.371C14.349 16.9629 14.7103 17.4722 15.224 17.6895V25.68C14.7103 25.8975 14.349 26.4065 14.349 26.9985V27.8645H13.1094ZM11.1406 17.802H10.0469V25.5676H11.1406V17.802ZM16.3178 17.802H17.4115V25.5676H16.3178V17.802ZM17.9493 16.7083C18.1353 16.7083 18.2866 16.557 18.2866 16.371H18.2864V15.5052H15.4426V16.371C15.4426 16.557 15.5941 16.7083 15.7799 16.7083H17.9493ZM15.4428 26.9987C15.4428 26.8126 15.594 26.6614 15.7801 26.6614H17.9492C18.1351 26.6614 18.2865 26.8126 18.2865 26.9987V27.8645H15.4428V26.9987ZM23.6822 17.802H22.5885V25.5676H23.6822V17.802ZM24.5572 16.371C24.5572 16.557 24.406 16.7083 24.2199 16.7083H22.0508C21.8649 16.7083 21.7135 16.557 21.7135 16.371V15.5052H24.5572V16.371ZM22.0508 26.6614C21.8647 26.6614 21.7135 26.8126 21.7135 26.9987H21.7137V27.8645H24.5574V26.9987C24.5574 26.8126 24.406 26.6614 24.2201 26.6614H22.0508ZM30.8281 16.371C30.8281 16.557 30.6769 16.7083 30.4908 16.7083H28.3215C28.1356 16.7083 27.9844 16.557 27.9844 16.371V15.5052H30.8281V16.371ZM17.8307 12.3333C17.8307 12.6353 17.5858 12.8802 17.2838 12.8802H8.29688V14.4114H31.7031V12.8802H22.8984C22.5964 12.8802 22.3516 12.6353 22.3516 12.3333C22.3516 12.0312 22.5964 11.7864 22.8984 11.7864H30.5438L20 6.4922L9.45621 11.7864H17.2838C17.5858 11.7864 17.8307 12.0312 17.8307 12.3333ZM12.0156 15.5052V16.371C12.0156 16.557 11.8644 16.7083 11.6783 16.7083H9.50919C9.32312 16.7083 9.17188 16.557 9.17188 16.371V15.5052H12.0156ZM9.50919 26.6614C9.32312 26.6614 9.17188 26.8126 9.17188 26.9987V27.8645H12.0156V26.9987C12.0156 26.8126 11.8644 26.6614 11.6785 26.6614H9.50919ZM31.7031 28.9583V30.052H8.29688V28.9583H31.7031ZM7.09375 31.1458V32.2395H32.9062V31.1458H7.09375Z"
          fill="#BEC4CB"/>
    <path opacity="0.4"
          d="M20 12.8801C20.1438 12.8801 20.285 12.8216 20.3867 12.7199C20.4883 12.6182 20.5469 12.477 20.5469 12.3333C20.5469 12.1895 20.4883 12.0483 20.3867 11.9466C20.285 11.8449 20.1438 11.7864 20 11.7864C19.8562 11.7864 19.715 11.8449 19.6133 11.9466C19.5117 12.0483 19.4531 12.1895 19.4531 12.3333C19.4531 12.477 19.5117 12.6182 19.6133 12.7199C19.715 12.8216 19.8562 12.8801 20 12.8801Z"
          fill="#00A2D3"/>
    <path opacity="0.4"
          d="M30.5 21.1379C30.3562 21.1379 30.215 21.1965 30.1133 21.2982C30.0117 21.3998 29.9531 21.541 29.9531 21.6848C29.9531 21.8286 30.0117 21.9698 30.1133 22.0715C30.215 22.1732 30.3562 22.2317 30.5 22.2317C30.6438 22.2317 30.785 22.1732 30.8867 22.0715C30.9883 21.9698 31.0469 21.8286 31.0469 21.6848C31.0469 21.541 30.9883 21.3998 30.8867 21.2982C30.785 21.1965 30.6438 21.1379 30.5 21.1379Z"
          fill="#00A2D3"/>
</svg>
