<svg width="9" height="10" viewBox="0 0 9 10" fill="none" xmlns="http://www.w3.org/2000/svg">
    <path
        d="M4.2379 9.89705C4.13561 9.82295 4.07269 9.70801 4.06638 9.58387V8.65131C4.07514 8.6069 4.05437 8.56193 4.01448 8.53888C3.97458 8.51583 3.92414 8.51972 3.88844 8.54853L3.49079 8.76963C3.37936 8.82481 3.24763 8.82481 3.13619 8.76963L3.10664 8.75397C3.00165 8.6857 2.93592 8.57308 2.92934 8.45025V8.38129C2.93602 8.25878 3.00177 8.1466 3.10664 8.07877L3.86916 7.64979C3.97405 7.5817 4.03979 7.46927 4.04647 7.34664V6.87306C4.05732 6.82971 4.0372 6.78455 3.99726 6.7627C3.95731 6.74077 3.90732 6.74754 3.87495 6.77911L3.40728 7.07725C3.37537 7.1095 3.32522 7.11683 3.28503 7.0951C3.24482 7.07342 3.22462 7.02808 3.23576 6.98461V6.45779C3.2453 6.41351 3.22472 6.36822 3.18467 6.34536C3.14461 6.3225 3.09404 6.3272 3.0591 6.35701L2.63833 6.59747C2.53334 6.6658 2.46761 6.77842 2.46103 6.90124V7.75877C2.45428 7.88203 2.39077 7.99572 2.28822 8.06812L2.21113 8.11516C2.10388 8.17347 1.97287 8.17153 1.86745 8.11009L1.84946 8.09819C1.74879 8.02296 1.68685 7.90853 1.67987 7.78501V7.34664C1.68863 7.30223 1.66786 7.25726 1.62797 7.23421C1.58807 7.21116 1.53763 7.21504 1.50193 7.24385L0.681585 7.70303C0.567707 7.75808 0.435708 7.7656 0.31606 7.72369L0.18758 7.67102C0.0776929 7.6174 0.00599994 7.51011 0 7.39042V7.26083C0.00635187 7.13869 0.0732058 7.02726 0.179229 6.962L1.05482 6.48723C1.09784 6.47527 1.12751 6.43693 1.12751 6.39328C1.12751 6.34968 1.09784 6.31135 1.05482 6.29939L0.644325 6.09204C0.536548 6.03043 0.467935 5.91995 0.461884 5.79828V5.71498C0.468563 5.59282 0.53531 5.48133 0.641114 5.41559L0.720771 5.37174C0.833351 5.31837 0.965274 5.32046 1.07602 5.37738L1.83084 5.81582C1.94167 5.87155 2.07331 5.87155 2.18415 5.81582L2.59914 5.57844C2.65891 5.54838 2.71513 5.51204 2.76681 5.47008C2.76167 5.46569 2.67752 5.41747 2.57987 5.36235L2.14818 5.11619C2.10424 5.10015 2.07482 5.05955 2.07397 5.01381C2.07312 4.96807 2.10102 4.92647 2.14433 4.90887L2.56124 4.6527C2.60486 4.63504 2.63297 4.59318 2.63212 4.54714C2.63127 4.50109 2.60163 4.46024 2.55739 4.44413L2.14497 4.20612C2.03448 4.15082 1.90343 4.15082 1.79293 4.20612L1.03812 4.64456C0.926178 4.70121 0.793991 4.70558 0.678373 4.65646L0.628908 4.63203C0.521331 4.57083 0.452711 4.46081 0.446467 4.33953V4.25748C0.452772 4.13503 0.518957 4.02298 0.624411 3.95621L1.01756 3.73636C1.06151 3.72294 1.09142 3.68324 1.09142 3.63834C1.09142 3.59343 1.06151 3.55374 1.01756 3.54031L0.182441 3.08935C0.0765976 3.02423 0.00976831 2.91306 0.00321199 2.79121V2.66281C0.00960276 2.54108 0.0774546 2.43035 0.184368 2.36717L0.280728 2.31769C0.395314 2.26734 0.52713 2.27033 0.639186 2.32583L1.46403 2.79872C1.49897 2.82851 1.54954 2.83318 1.5896 2.81032C1.62965 2.78745 1.65022 2.74217 1.64069 2.69788V2.2419C1.64818 2.11868 1.70974 2.00456 1.80964 1.92873L1.82698 1.91683C1.93227 1.85393 2.06367 1.84941 2.17323 1.90493L2.25482 1.95191C2.3593 2.02038 2.42435 2.13306 2.43019 2.25568V3.13757C2.43667 3.26048 2.50243 3.37314 2.60749 3.44135L3.04497 3.69189C3.08013 3.72153 3.13079 3.72589 3.17074 3.70272C3.21067 3.67956 3.23092 3.63406 3.22098 3.58979V3.08496C3.21187 3.04012 3.23243 2.99449 3.27247 2.9707C3.31251 2.94692 3.36352 2.95002 3.40021 2.97848L3.87109 3.22902C3.90767 3.2578 3.95881 3.2612 3.99905 3.23751C4.03929 3.21383 4.06004 3.16813 4.05096 3.12317V2.64903C4.04428 2.52634 3.97855 2.41395 3.87366 2.34588L3.11114 1.91558C3.00627 1.84777 2.94051 1.73557 2.93383 1.61305V1.55042C2.94032 1.42766 3.00548 1.31497 3.10985 1.24602L3.14069 1.22848C3.25187 1.17232 3.3841 1.17232 3.49529 1.22848L3.89293 1.4502C3.92873 1.47922 3.97939 1.48308 4.01937 1.45986C4.05936 1.43663 4.08 1.39136 4.07088 1.34686V0.416738C4.07775 0.293052 4.13999 0.178551 4.24111 0.103566L4.33105 0.0453159C4.43677 -0.0151053 4.56773 -0.0151053 4.67345 0.0453159L4.76531 0.10795C4.86746 0.182226 4.93034 0.297035 4.93683 0.421122V1.35124C4.92829 1.39575 4.94904 1.44074 4.98884 1.46405C5.02865 1.48737 5.07913 1.4841 5.11542 1.45584L5.53876 1.22222C5.64999 1.16922 5.78111 1.1744 5.88758 1.236L5.93961 1.27044C6.04033 1.34576 6.10246 1.46007 6.10985 1.58362V1.59865C6.10297 1.72127 6.03728 1.83358 5.93255 1.9018L5.13084 2.35151C5.02624 2.41919 4.96071 2.53118 4.95418 2.65341V3.12755C4.94415 3.17134 4.96463 3.21638 5.00464 3.23854C5.04465 3.26071 5.09481 3.25481 5.12827 3.22401L5.57024 2.95719C5.60369 2.92638 5.65385 2.92049 5.69386 2.94266C5.73387 2.96482 5.75435 3.00986 5.74433 3.05364V3.60545C5.73525 3.65042 5.756 3.69612 5.79624 3.7198C5.83648 3.74348 5.88762 3.74009 5.9242 3.71131L6.37901 3.46515C6.48546 3.39993 6.55259 3.28819 6.55889 3.16576V2.19305C6.56473 2.07227 6.63488 1.96325 6.7439 1.90556L6.76638 1.89428C6.88574 1.84855 7.01839 1.84855 7.13769 1.89428L7.17687 1.91119C7.28672 1.96669 7.35797 2.07505 7.36381 2.19555V2.67095C7.35469 2.7158 7.37525 2.76142 7.41527 2.78521C7.45535 2.80899 7.50636 2.80589 7.54304 2.77743L8.39679 2.3202C8.50953 2.26812 8.6409 2.27137 8.75075 2.32897L8.82591 2.37531C8.9294 2.44652 8.99358 2.56014 9 2.68348V2.77555C8.99377 2.89803 8.92818 3.01033 8.82334 3.07807L7.99336 3.54658C7.94981 3.56144 7.92071 3.60151 7.92071 3.64648C7.92071 3.69145 7.94981 3.73152 7.99336 3.74638L8.3788 3.95934C8.48428 4.02619 8.55064 4.13814 8.55739 4.26061V4.33139C8.55083 4.45374 8.48409 4.56546 8.37816 4.6314L8.35118 4.64706C8.23902 4.70042 8.10752 4.69832 7.99722 4.64143L7.21221 4.18106C7.10255 4.12488 6.97105 4.127 6.86338 4.1867L6.4227 4.46542C6.37932 4.48442 6.3514 4.52647 6.3514 4.57284C6.3514 4.61921 6.37932 4.66126 6.4227 4.68026L6.8364 4.93643C6.87976 4.95381 6.90809 4.995 6.90809 5.04072C6.90809 5.08644 6.87976 5.12763 6.8364 5.14501L6.40664 5.38928C6.36272 5.40313 6.33328 5.44338 6.33416 5.48839C6.33505 5.53338 6.36606 5.57251 6.41049 5.5847L6.86017 5.8177C6.97478 5.86871 7.10685 5.86687 7.21991 5.81269L7.99979 5.37989C8.11009 5.3266 8.24094 5.33349 8.34475 5.39805L8.37687 5.41997C8.47548 5.499 8.5358 5.61455 8.54325 5.73878V5.78889C8.53696 5.91166 8.47079 6.02409 8.36531 6.09141L8.00814 6.28993C7.96413 6.30528 7.93478 6.34586 7.93478 6.3914C7.93478 6.437 7.96413 6.47758 8.00814 6.49293L8.79186 6.95573C8.89612 7.02513 8.9612 7.13794 8.96788 7.26083V7.38165C8.96165 7.50235 8.89124 7.61114 8.78223 7.66858L8.67302 7.71862C8.55488 7.76372 8.42261 7.75758 8.30942 7.70171L7.54882 7.27204C7.51317 7.24273 7.46236 7.23872 7.42233 7.26202C7.38231 7.28538 7.36188 7.33091 7.37152 7.37538V7.80324C7.3651 7.92575 7.29861 8.03787 7.19293 8.10451L7.14861 8.12957C7.03677 8.18406 6.9052 8.18406 6.79336 8.12957L6.75546 8.10764C6.65036 8.03975 6.58452 7.92726 6.57816 7.80449V6.94383C6.57135 6.82126 6.50531 6.70902 6.40021 6.64131L5.92934 6.37511C5.89407 6.3453 5.84319 6.34079 5.803 6.36397C5.76279 6.38714 5.74228 6.43274 5.75203 6.47721V6.95135C5.76206 6.99519 5.74158 7.04023 5.70157 7.0624C5.66156 7.08451 5.6114 7.07862 5.57794 7.04781L5.13597 6.78105C5.10245 6.74998 5.05203 6.74409 5.01191 6.76645C4.97179 6.78881 4.95146 6.83422 4.96188 6.87807V7.35158C4.96857 7.47428 5.0343 7.58671 5.13919 7.65473L5.90107 8.08384C6.0061 8.15155 6.07209 8.26373 6.07901 8.3863V8.47969C6.07275 8.60108 6.00384 8.71119 5.89593 8.77219L5.87537 8.78284C5.75996 8.83182 5.62819 8.82838 5.51563 8.77338L5.12248 8.55291C5.08706 8.52347 5.03634 8.51915 4.99619 8.54214C4.95605 8.56519 4.9353 8.61053 4.94454 8.65501V9.58387C4.93826 9.7082 4.87506 9.82314 4.77238 9.89705L4.68116 9.95467C4.5752 10.0151 4.44407 10.0151 4.33812 9.95467L4.2379 9.89705Z"
        fill="#00A2D3"/>
</svg>
