<svg width="10" height="11" viewBox="0 0 10 11" fill="none" xmlns="http://www.w3.org/2000/svg">
  <path d="M3.5 1C3.5 0.723858 3.72386 0.5 4 0.5H6C6.27614 0.5 6.5 0.723858 6.5 1V2.5H3.5V1Z" stroke="#FF6969"/>
  <path fill-rule="evenodd" clip-rule="evenodd"
        d="M1 2H9V10C9 10.5523 8.55228 11 8 11H2C1.44772 11 1 10.5523 1 10V2ZM3 4.5C3 4.22386 3.22386 4 3.5 4C3.77614 4 4 4.22386 4 4.5V8.5C4 8.77614 3.77614 9 3.5 9C3.22386 9 3 8.77614 3 8.5V4.5ZM6.5 4C6.22386 4 6 4.22386 6 4.5V8.5C6 8.77614 6.22386 9 6.5 9C6.77614 9 7 8.77614 7 8.5V4.5C7 4.22386 6.77614 4 6.5 4Z"
        fill="#FF6969"/>
  <rect y="2" width="10" height="1" rx="0.5" fill="#FF6969"/>
</svg>
